<?xml version="1.0" encoding="UTF-8" standalone="no"?>
<!DOCTYPE svg PUBLIC "-//W3C//DTD SVG 1.1//EN" "http://www.w3.org/Graphics/SVG/1.1/DTD/svg11.dtd">
<svg width="100%" height="100%" viewBox="0 0 1080 1080" version="1.1" xmlns="http://www.w3.org/2000/svg" xmlns:xlink="http://www.w3.org/1999/xlink" xml:space="preserve" xmlns:serif="http://www.serif.com/" style="fill-rule:evenodd;clip-rule:evenodd;stroke-linejoin:round;stroke-miterlimit:2;">
    <g id="UNI-LOGO" serif:id="UNI LOGO" transform="matrix(1,0,0,1,0.012891,-0.086668)">
        <path d="M87.651,260.421L87.201,819.752L616.06,819.752L616.06,446.625L465.337,446.706L465.377,681.125L237.597,681.143L238.337,260.421L87.651,260.421Z" style="fill:rgb(0,52,133);"/>
        <path d="M426.654,633.773L276.205,633.78L276.154,260.421L805.371,260.421L805.096,681.373L843.27,681.214L842.704,447.433L992.465,447.587L992.773,818.981L654.231,819.752L653.614,399.621L426.891,400.083L426.654,633.773Z" style="fill:rgb(0,52,133);"/>
        <path d="M841.819,400.717L992.773,400.449L992.773,260.421L841.959,260.561L841.819,400.717Z" style="fill:rgb(0,52,133);"/>
    </g>
</svg>
